<?xml version="1.0" encoding="utf-8"?>
<!-- Generator: Adobe Illustrator 17.1.0, SVG Export Plug-In . SVG Version: 6.00 Build 0)  -->
<!DOCTYPE svg PUBLIC "-//W3C//DTD SVG 1.1//EN" "http://www.w3.org/Graphics/SVG/1.1/DTD/svg11.dtd">
<svg version="1.1" id="Layer_1" xmlns="http://www.w3.org/2000/svg" xmlns:xlink="http://www.w3.org/1999/xlink" x="0px" y="0px"
	 viewBox="0 0 100 500" enable-background="new 0 0 100 500" xml:space="preserve">
<g>
	<g>
		<path fill="none" stroke="#000000" stroke-width="3.6765" stroke-linejoin="round" stroke-miterlimit="10" d="M49.8,53.9
			l-24.3-9.8l-12.8,5.2l37.1,15l37.1-15l-12.8-5.2L49.8,53.9z M49.8,68.1L23.5,57.5l-10.8,4.4l37.1,15l37.1-15L76,57.5L49.8,68.1z
			 M86.8,35.1l-37.1-15l-37.1,15l37.1,15L86.8,35.1z"/>
	</g>
</g>
<g>
	<g>
		<path d="M58.2,145.4V144c0,0,4.8-8.9,4.8-15.5c0-5.7-2.3-14.1-13.6-14.1c-11.3,0-14.3,7.9-14.3,14.1c0,6.8,4.8,15.5,4.8,15.5
			s0,1.3,0,1.3c-14.5,4.1-30,15.7-30,20.2c0,0,0,5.4,0,5.4s-0.1,2,2,4c2.1,2.1,6.8,2,6.8,2h30.7H78c0,0,5.5,0,7.5-2c2-2,2-4,2-4
			s0-5.3,0-5.4C87.5,160.5,71.7,149.5,58.2,145.4z M83.4,168.9c0,5.4-9,4-15.7,4H29.6c-6.7,0-15.7,1.4-15.7-4v-3.4
			c2.9-6.3,23.3-16.7,30-17.5v-5.4c-3-3.2-4.8-8.8-4.8-14.1c0-7.9,4.7-10.1,10.2-10.1c5.6,0,9.5,2.2,9.5,10.1
			c0,5.3-1.7,10.9-4.8,14.1v5.4c6.6,1.6,26.6,11.5,29.3,17.5V168.9z M49.3,164.2c-0.7,0-10.3-9.5-10.3-9.5l-1.3,1.5
			c0,0,10.9,11.4,11.6,11.4s10.9-11.4,10.9-11.4l-1.4-1.3C58.9,154.8,50,164.2,49.3,164.2z"/>
	</g>
</g>
<path d="M48.6,278.6c0,0-25.5-29.1-25.5-46.2c0-15.4,10.2-25.8,25.5-25.8s25.5,10.3,25.5,25.8C74.1,249.6,48.6,278.6,48.6,278.6z
	 M48.6,211.2c-13,0-21,8.8-21,22c0,14.6,21,38.6,21,38.6s21-24,21-38.6C69.6,220,61.6,211.2,48.6,211.2z M48.7,239.4
	c-3.8,0-6.8-3.1-6.8-6.9c0-3.8,3-6.9,6.8-6.9s6.8,3.1,6.8,6.9C55.5,236.3,52.5,239.4,48.7,239.4z"/>
<g>
	<g>
		<path fill="#FFFFFF" d="M49.3,322.7l-11.5-14.3l-30.3,9.3l12.2,13.6L49.3,322.7z M92.6,317.7l-30.3-9.3l-11.5,14.3l30.3,7.9
			L92.6,317.7z M50.8,340.6l7.9,15.7l30.3-8.6L81,332L50.8,340.6z M49.3,339.9L19.8,332l-8.6,16.4l29.5,7.9L49.3,339.9z M50.1,342
			l-8.6,15.7l-22.3-6.4v17.9l31,7.9l31-7.9v-17.9L58,357.7L50.1,342z"/>
	</g>
	<g>
		<path fill="none" stroke="#000000" stroke-width="3.3872" stroke-linejoin="round" stroke-miterlimit="10" d="M49.3,322.7
			l-11.5-14.3l-30.3,9.3l12.2,13.6L49.3,322.7z M92.6,317.7l-30.3-9.3l-11.5,14.3l30.3,7.9L92.6,317.7z M50.8,340.6l7.9,15.7
			l30.3-8.6L81,332L50.8,340.6z M49.3,339.9L19.8,332l-8.6,16.4l29.5,7.9L49.3,339.9z M50.1,342l-8.6,15.7l-22.3-6.4v17.9l31,7.9
			l31-7.9v-17.9L58,357.7L50.1,342z"/>
	</g>
</g>
<g>
	<g>
		<path fill="#FFFFFF" d="M84.7,423.4H14.1c-1.1,0-2,0.9-2,2v42.3c0,1.1,0.9,2,2,2h70.6c1.1,0,2-0.9,2-2v-42.3
			C86.8,424.3,85.8,423.4,84.7,423.4z"/>
	</g>
	<g>
		<path fill="none" stroke="#000000" stroke-width="3.4472" stroke-linejoin="round" stroke-miterlimit="10" d="M84.7,423.4H14.1
			c-1.1,0-2,0.9-2,2v42.3c0,1.1,0.9,2,2,2h70.6c1.1,0,2-0.9,2-2v-42.3C86.8,424.3,85.8,423.4,84.7,423.4z"/>
	</g>
</g>
<path d="M11.4,436.1h76v10.5h-76V436.1z"/>
</svg>
